<svg xmlns="http://www.w3.org/2000/svg" viewBox="0 0 400 153"><g fill="none" stroke-width="2"><path stroke="#ff8080" d="m176.03 55.79 19.67-.06a1.02 1.01 73.8 0 1 .86.48l3.72 6.06a1.02.99 73.5 0 0 .85.48h7.1q1.86 0 .84-1.55-10.92-16.57-21.54-33.31c-3.15-4.97-8.24-8.81-12.49-2.07q-11.23 17.79-22.8 35.38-1.02 1.55.83 1.55h7.16a1.02 1-73.1 0 0 .84-.46l18.75-29.58a1 .99 45.3 0 1 1.69.01l8.88 14.31q.95 1.54-.86 1.53l-17.09-.09q-1.89-.01-.83 1.56l3.58 5.32a1.02 1.01-16.9 0 0 .84.44M360.51 27.05a4.65 4.65 0 0 0-4.65-4.65 4.65 4.65 0 0 0-4.65 4.65 4.65 4.65 0 0 0 4.65 4.65 4.65 4.65 0 0 0 4.65-4.65M99.293 41.394a18.68 18.68 0 0 0-18.777-18.582l-25.96.136a18.68 18.68 0 0 0-18.582 18.778l.013 2.38a18.68 18.68 0 0 0 18.777 18.582l25.96-.136a18.68 18.68 0 0 0 18.582-18.778l-.013-2.38M136.14 49.57q7.87 1.07 12.15-4.77c6.59-8.98.9-22.53-10.93-22.11q-2.66.1-2.73.1-14.91-.15-29.86.06a1.01 1.01 0 0 0-.99 1l-.17 37.9a1 .99.3 0 0 1 1h5.67a1.01 1 .3 0 0 1.01-.99l.13-30.91a1 1 0 0 1 .98-1q11.76-.21 23.51-.07c10.17.13 9.81 13.06-.17 13.01q-8.76-.03-18.22-.05-2.73-.01-.65 1.76l21.07 17.95a1.01.93 63.6 0 0 .63.24l8.51.18q2.86.05.65-1.77l-12.2-10.12q-2.16-1.79.61-1.41M221.42 54.56c-10.53-4.52-10.18-19.84.46-23.85q2.51-.94 9.38-.96 8.77-.01 17.77.01a1.02 1-73.5 0 0 .85-.47l3.15-5.01q.96-1.54-.85-1.54-12.38.05-24.88-.02c-23.6-.15-29.83 30.9-8.35 38.75q3.63 1.33 10.74 1.29 10.02-.05 20.05.01a.98.98 0 0 0 .86-.48l3.04-5.05q.92-1.53-.86-1.52-11.01.08-21.92.01-6.83-.05-9.44-1.17M265.75 54.75v-31a1 1 0 0 0-1-1h-5.9a1 1 0 0 0-1 .97q-.3 11.75.08 23.49c.12 3.51-.58 8.72.27 13.16q.45 2.37 2.86 2.37l35.78.02a1.01 1.01 0 0 0 .84-.45l3.34-5.01q1.03-1.55-.84-1.55h-33.43a1 1 0 0 1-1-1M309.03 37.79q2-4.41 6.07-6.51 2.85-1.47 8.94-1.51 9.61-.07 19.26.01a1 .99 15.6 0 0 .85-.47l3.13-4.99q.95-1.51-.84-1.53-11.73-.07-23.46-.05-6.53.01-9.83 1.22c-17.06 6.24-17.48 31.32-.06 37.53q3.51 1.25 11.46 1.26 9.66.01 19.34 0a1.02 1-73.1 0 0 .84-.46l3.28-5.13q1.01-1.57-.86-1.53-12.96.27-25.97.05-8.61-.15-12.13-7.77a1 1 0 0 1 .9-1.42l31.11-.18a.99.98-73.8 0 0 .83-.46l3.28-5.09q1-1.55-.84-1.55l-34.39-.01a1 1 0 0 1-.91-1.41" vector-effect="non-scaling-stroke"/><path stroke="gray" d="M349.68 83.59a.89.89 0 0 0-.89-.89H35.89a.89.89 0 0 0-.89.89v.52a.89.89 0 0 0 .89.89h312.9a.89.89 0 0 0 .89-.89v-.52M333.98 114.77q2.08-8.27 10.74-5.79a1 1 0 0 0 1.28-.96v-2.97a1 .98-83.4 0 0-.75-.97c-22.06-5.48-22.9 30.53-7.01 29.44 11.81-.81 13.1-19.16 1.7-19.09q-2.54.02-4.81 1.24-1.6.86-1.15-.9" vector-effect="non-scaling-stroke"/><path stroke="gray" d="m310.49 131.84-.16-7.98a1 1 0 0 1 .96-1.02q1.66-.06 3.32-.16c11.66-.72 13.65-16.35 3.64-18.19q-4.65-.85-13.54-.46a1 1 0 0 0-.96 1v26.74a1 1 0 0 0 .98 1l4.74.09a1 1 0 0 0 1.02-1.02M87.75 110.67c-1.15-4.71-5.1-5.06-9.12-5.32q-4.13-.27-8.44-.01a1 1 0 0 0-.94 1v24.41a1 1 0 0 0 1 1h4.03a1 .99-.6 0 0 1-1.01l-.11-8.14a.99.99 0 0 1 .95-1.01q2.13-.1 4.3-.27c6.02-.48 8.81-4.63 7.33-10.65M99.24 120.97l5.19.14a1 .99-7.2 0 1 .93.72q1.29 4.38 1.39 8.95a1 1 0 0 0 1 .98l4.26-.01a1 1 0 0 0 .98-1.18l-1.81-9.85a1.05 1-83.2 0 0-.54-.72l-1.15-.57q-1.58-.79-.1-1.74 1.14-.73 1.95-1.76c3.51-4.48.08-9.83-5.13-10.36q-6.57-.67-13.29-.22a1 1 0 0 0-.94 1l.16 24.41a1 1 0 0 0 1 .99h4.13a1.01 1 90 0 0 1-1.01l-.06-8.76a1.01 1-89.2 0 1 1.03-1.01M123.75 105.9a.65.65 0 0 0-.65-.65h-4.7a.65.65 0 0 0-.65.65v25.2a.65.65 0 0 0 .65.65h4.7a.65.65 0 0 0 .65-.65v-25.2M143.77 121.11l-4.31-15.19a1 1 0 0 0-.99-.73l-7.52.22a1 1 0 0 0-.97 1v24.34a1 .99 89.7 0 0 1 1h3.35a1 .99 89.4 0 0 .99-1.02l-.27-15.76q-.13-7.7 1.97-.29.11.41.21.84.78 3.22 4.7 15.53a1 .99 81.2 0 0 .95.7h3.3a1.01 1-80.7 0 0 .95-.69q2.98-8.98 5.53-18.08.15-.51.36-.96 1.28-2.67 1.22.28l-.33 18.23a.99.99 0 0 0 .93 1.01l3.85.28a1.01 1 2.1 0 0 1.08-1l-.12-24.33a1.01 1 .6 0 0-.99-1l-7.41-.1a1 .99 8.4 0 0-.97.71l-4.59 15.03q-.99 3.25-1.92-.02M170.9 126.24a.35.35 0 0 1 .33-.24h9.8a.35.35 0 0 1 .33.23l1.88 5.35a.35.35 0 0 0 .35.23l5.08-.21a.35.35 0 0 0 .31-.47l-8.92-25.54a.35.35 0 0 0-.32-.23l-6.49-.13a.35.35 0 0 0-.33.24l-9.26 25.8a.35.35 0 0 0 .33.47l4.8.01a.35.35 0 0 0 .33-.24l1.78-5.27M200.02 124.8a.35.35 0 0 1-.66.01l-6.38-19.32a.35.35 0 0 0-.33-.24h-5.71a.35.35 0 0 0-.33.47l9.69 25.85a.35.35 0 0 0 .34.23l5.62-.09a.35.35 0 0 0 .32-.23l9.47-25.68a.35.35 0 0 0-.32-.47l-5.07-.11a.35.35 0 0 0-.34.24l-6.3 19.34M222.67 127.08a.41.41 0 0 1-.42-.41v-6.16a.41.41 0 0 1 .42-.41l10.37.21a.41.41 0 0 0 .42-.4l.13-3.82a.41.41 0 0 0-.42-.43l-10.51.13a.41.41 0 0 1-.41-.41v-5.22a.41.41 0 0 1 .41-.41h11.18a.41.41 0 0 0 .41-.41v-3.56a.41.41 0 0 0-.41-.41h-17.18a.41.41 0 0 0-.41.41v25.56a.41.41 0 0 0 .41.41h17.66a.41.41 0 0 0 .41-.43l-.17-4.01a.41.41 0 0 0-.42-.39l-11.47.16M246.25 121l5.69.01a1 1 0 0 1 .99.86l1.27 9.02a1 1 0 0 0 .99.86h4.12a1 1 0 0 0 .97-1.24q-.98-3.98-1.54-8.05-.2-1.45-.9-2.22-.54-.59-1.2-1.03a1 1 0 0 1 .01-1.68q4.53-2.89 2.84-7.6c-1.28-3.6-4.18-4.54-7.75-4.62q-5.72-.13-11.53-.02a1 .99 89.7 0 0-.98 1l.11 24.47a1 .99 0 0 0 1 .99h3.91a1 1 0 0 0 1-1V122a1 1 0 0 1 1-1M273.46 105.18a.5.5 0 0 0-.49.32l-9.25 25.58a.5.5 0 0 0 .47.67h4.54a.5.5 0 0 0 .47-.33l1.78-5.09a.5.5 0 0 1 .47-.33h9.56a.5.5 0 0 1 .47.34l1.71 5.12a.5.5 0 0 0 .5.34l4.71-.2a.5.5 0 0 0 .45-.66l-8.72-25.17a.5.5 0 0 0-.45-.33l-6.22-.26" vector-effect="non-scaling-stroke"/><path stroke="#ff8080" d="M357.53 29.39c5.22-4.1-2.67-7.15-5.14-2.93a1 .99-52.7 0 0 .16 1.21l2.74 2.74a1 1 0 0 0 1.03.24q.63-.21.91-.86.1-.24.3-.4M91.57 42.09A12.17 12.17 0 0 0 79.4 29.92H55.88a12.17 12.17 0 0 0-12.17 12.17v1.34A12.17 12.17 0 0 0 55.88 55.6H79.4a12.17 12.17 0 0 0 12.17-12.17v-1.34" vector-effect="non-scaling-stroke"/><path stroke="#ff8080" d="M354.33 26.54q.01 2.27 2.01 2.06a1 .99-82.3 0 0 .83-.64q1.12-2.9-1.99-2.41a1 1 0 0 0-.85.99" vector-effect="non-scaling-stroke"/><path stroke="gray" d="M337.892 128.54a4.88 3.74 90.1 0 0 3.748-4.873 4.88 3.74 90.1 0 0-3.731-4.887 4.88 3.74 90.1 0 0-3.749 4.873 4.88 3.74 90.1 0 0 3.731 4.887M310.32 117.05a1.01 1 87.6 0 0 1.13 1.04l4.4-.58a.99.99 0 0 0 .77-.56q3.19-6.58-3.06-8.2-2.86-.74-2.99 2.46l-.25 5.84M79.81 109.94q-1.47-.38-4.02-.21a1 1 0 0 0-.93 1.03l.19 5.44a1.01.99-86.9 0 0 .85.96q4.63.66 6.56-3.28a.99.96-39.2 0 0 .08-.66q-.6-2.74-2.73-3.28M102.62 109.61q-1.93-.24-3.88-.08a1.01 1-2.2 0 0-.93 1l.02 5a1.01 1-.6 0 0 1.03 1l5.28-.14a1.04 1.01 22.2 0 0 .67-.27c3.26-3.1 1.93-6.02-2.19-6.51M172.75 120.82a.45.45 0 0 0 .41.6l5.97.16a.45.45 0 0 0 .44-.58l-2.74-9.27a.45.45 0 0 0-.86-.02l-3.22 9.11M251.37 109.64l-5.35-.13a1 1 0 0 0-1.02 1v4.96a1 1 0 0 0 1 1q1.51 0 3.01.05c4.23.11 6.68-3.05 3.03-6.6a.96.94 67.1 0 0-.67-.28M272.71 120.96a.35.35 0 0 0 .32.47l6.29.14a.35.35 0 0 0 .34-.45l-2.93-9.51a.35.35 0 0 0-.66-.02l-3.36 9.37" vector-effect="non-scaling-stroke"/></g><path fill="#fff" d="M0 0h400v153H0V0Zm176.03 55.79 19.67-.06a1.02 1.01 73.8 0 1 .86.48l3.72 6.06a1.02.99 73.5 0 0 .85.48h7.1q1.86 0 .84-1.55-10.92-16.57-21.54-33.31c-3.15-4.97-8.24-8.81-12.49-2.07q-11.23 17.79-22.8 35.38-1.02 1.55.83 1.55h7.16a1.02 1-73.1 0 0 .84-.46l18.75-29.58a1 .99 45.3 0 1 1.69.01l8.88 14.31q.95 1.54-.86 1.53l-17.09-.09q-1.89-.01-.83 1.56l3.58 5.32a1.02 1.01-16.9 0 0 .84.44Zm184.48-28.74a4.65 4.65 0 0 0-4.65-4.65 4.65 4.65 0 0 0-4.65 4.65 4.65 4.65 0 0 0 4.65 4.65 4.65 4.65 0 0 0 4.65-4.65ZM99.293 41.394a18.68 18.68 0 0 0-18.777-18.582l-25.96.136a18.68 18.68 0 0 0-18.582 18.778l.013 2.38a18.68 18.68 0 0 0 18.777 18.582l25.96-.136a18.68 18.68 0 0 0 18.582-18.778l-.013-2.38Zm36.847 8.176q7.87 1.07 12.15-4.77c6.59-8.98.9-22.53-10.93-22.11q-2.66.1-2.73.1-14.91-.15-29.86.06a1.01 1.01 0 0 0-.99 1l-.17 37.9a1 .99.3 0 0 1 1h5.67a1.01 1 .3 0 0 1.01-.99l.13-30.91a1 1 0 0 1 .98-1q11.76-.21 23.51-.07c10.17.13 9.81 13.06-.17 13.01q-8.76-.03-18.22-.05-2.73-.01-.65 1.76l21.07 17.95a1.01.93 63.6 0 0 .63.24l8.51.18q2.86.05.65-1.77l-12.2-10.12q-2.16-1.79.61-1.41Zm85.28 4.99c-10.53-4.52-10.18-19.84.46-23.85q2.51-.94 9.38-.96 8.77-.01 17.77.01a1.02 1-73.5 0 0 .85-.47l3.15-5.01q.96-1.54-.85-1.54-12.38.05-24.88-.02c-23.6-.15-29.83 30.9-8.35 38.75q3.63 1.33 10.74 1.29 10.02-.05 20.05.01a.98.98 0 0 0 .86-.48l3.04-5.05q.92-1.53-.86-1.52-11.01.08-21.92.01-6.83-.05-9.44-1.17Zm44.33.19v-31a1 1 0 0 0-1-1h-5.9a1 1 0 0 0-1 .97q-.3 11.75.08 23.49c.12 3.51-.58 8.72.27 13.16q.45 2.37 2.86 2.37l35.78.02a1.01 1.01 0 0 0 .84-.45l3.34-5.01q1.03-1.55-.84-1.55h-33.43a1 1 0 0 1-1-1Zm43.28-16.96q2-4.41 6.07-6.51 2.85-1.47 8.94-1.51 9.61-.07 19.26.01a1 .99 15.6 0 0 .85-.47l3.13-4.99q.95-1.51-.84-1.53-11.73-.07-23.46-.05-6.53.01-9.83 1.22c-17.06 6.24-17.48 31.32-.06 37.53q3.51 1.25 11.46 1.26 9.66.01 19.34 0a1.02 1-73.1 0 0 .84-.46l3.28-5.13q1.01-1.57-.86-1.53-12.96.27-25.97.05-8.61-.15-12.13-7.77a1 1 0 0 1 .9-1.42l31.11-.18a.99.98-73.8 0 0 .83-.46l3.28-5.09q1-1.55-.84-1.55l-34.39-.01a1 1 0 0 1-.91-1.41Zm40.65 45.8a.89.89 0 0 0-.89-.89H35.89a.89.89 0 0 0-.89.89v.52a.89.89 0 0 0 .89.89h312.9a.89.89 0 0 0 .89-.89v-.52Zm-15.7 31.18q2.08-8.27 10.74-5.79a1 1 0 0 0 1.28-.96v-2.97a1 .98-83.4 0 0-.75-.97c-22.06-5.48-22.9 30.53-7.01 29.44 11.81-.81 13.1-19.16 1.7-19.09q-2.54.02-4.81 1.24-1.6.86-1.15-.9Zm-23.49 17.07-.16-7.98a1 1 0 0 1 .96-1.02q1.66-.06 3.32-.16c11.66-.72 13.65-16.35 3.64-18.19q-4.65-.85-13.54-.46a1 1 0 0 0-.96 1v26.74a1 1 0 0 0 .98 1l4.74.09a1 1 0 0 0 1.02-1.02ZM87.75 110.67c-1.15-4.71-5.1-5.06-9.12-5.32q-4.13-.27-8.44-.01a1 1 0 0 0-.94 1v24.41a1 1 0 0 0 1 1h4.03a1 .99-.6 0 0 1-1.01l-.11-8.14a.99.99 0 0 1 .95-1.01q2.13-.1 4.3-.27c6.02-.48 8.81-4.63 7.33-10.65Zm11.49 10.3 5.19.14a1 .99-7.2 0 1 .93.72q1.29 4.38 1.39 8.95a1 1 0 0 0 1 .98l4.26-.01a1 1 0 0 0 .98-1.18l-1.81-9.85a1.05 1-83.2 0 0-.54-.72l-1.15-.57q-1.58-.79-.1-1.74 1.14-.73 1.95-1.76c3.51-4.48.08-9.83-5.13-10.36q-6.57-.67-13.29-.22a1 1 0 0 0-.94 1l.16 24.41a1 1 0 0 0 1 .99h4.13a1.01 1 90 0 0 1-1.01l-.06-8.76a1.01 1-89.2 0 1 1.03-1.01Zm24.51-15.07a.65.65 0 0 0-.65-.65h-4.7a.65.65 0 0 0-.65.65v25.2a.65.65 0 0 0 .65.65h4.7a.65.65 0 0 0 .65-.65v-25.2Zm20.02 15.21-4.31-15.19a1 1 0 0 0-.99-.73l-7.52.22a1 1 0 0 0-.97 1v24.34a1 .99 89.7 0 0 1 1h3.35a1 .99 89.4 0 0 .99-1.02l-.27-15.76q-.13-7.7 1.97-.29.11.41.21.84.78 3.22 4.7 15.53a1 .99 81.2 0 0 .95.7h3.3a1.01 1-80.7 0 0 .95-.69q2.98-8.98 5.53-18.08.15-.51.36-.96 1.28-2.67 1.22.28l-.33 18.23a.99.99 0 0 0 .93 1.01l3.85.28a1.01 1 2.1 0 0 1.08-1l-.12-24.33a1.01 1 .6 0 0-.99-1l-7.41-.1a1 .99 8.4 0 0-.97.71l-4.59 15.03q-.99 3.25-1.92-.02Zm27.13 5.13a.35.35 0 0 1 .33-.24h9.8a.35.35 0 0 1 .33.23l1.88 5.35a.35.35 0 0 0 .35.23l5.08-.21a.35.35 0 0 0 .31-.47l-8.92-25.54a.35.35 0 0 0-.32-.23l-6.49-.13a.35.35 0 0 0-.33.24l-9.26 25.8a.35.35 0 0 0 .33.47l4.8.01a.35.35 0 0 0 .33-.24l1.78-5.27Zm29.12-1.44a.35.35 0 0 1-.66.01l-6.38-19.32a.35.35 0 0 0-.33-.24h-5.71a.35.35 0 0 0-.33.47l9.69 25.85a.35.35 0 0 0 .34.23l5.62-.09a.35.35 0 0 0 .32-.23l9.47-25.68a.35.35 0 0 0-.32-.47l-5.07-.11a.35.35 0 0 0-.34.24l-6.3 19.34Zm22.65 2.28a.41.41 0 0 1-.42-.41v-6.16a.41.41 0 0 1 .42-.41l10.37.21a.41.41 0 0 0 .42-.4l.13-3.82a.41.41 0 0 0-.42-.43l-10.51.13a.41.41 0 0 1-.41-.41v-5.22a.41.41 0 0 1 .41-.41h11.18a.41.41 0 0 0 .41-.41v-3.56a.41.41 0 0 0-.41-.41h-17.18a.41.41 0 0 0-.41.41v25.56a.41.41 0 0 0 .41.41h17.66a.41.41 0 0 0 .41-.43l-.17-4.01a.41.41 0 0 0-.42-.39l-11.47.16Zm23.58-6.08 5.69.01a1 1 0 0 1 .99.86l1.27 9.02a1 1 0 0 0 .99.86h4.12a1 1 0 0 0 .97-1.24q-.98-3.98-1.54-8.05-.2-1.45-.9-2.22-.54-.59-1.2-1.03a1 1 0 0 1 .01-1.68q4.53-2.89 2.84-7.6c-1.28-3.6-4.18-4.54-7.75-4.62q-5.72-.13-11.53-.02a1 .99 89.7 0 0-.98 1l.11 24.47a1 .99 0 0 0 1 .99h3.91a1 1 0 0 0 1-1V122a1 1 0 0 1 1-1Zm27.21-15.82a.5.5 0 0 0-.49.32l-9.25 25.58a.5.5 0 0 0 .47.67h4.54a.5.5 0 0 0 .47-.33l1.78-5.09a.5.5 0 0 1 .47-.33h9.56a.5.5 0 0 1 .47.34l1.71 5.12a.5.5 0 0 0 .5.34l4.71-.2a.5.5 0 0 0 .45-.66l-8.72-25.17a.5.5 0 0 0-.45-.33l-6.22-.26Z"/><path fill="#fe0000" d="m175.19 55.35-3.58-5.32q-1.06-1.57.83-1.56l17.09.09q1.81.01.86-1.53l-8.88-14.31a1 .99 45.3 0 0-1.69-.01l-18.75 29.58a1.02 1-73.1 0 1-.84.46h-7.16q-1.85 0-.83-1.55 11.57-17.59 22.8-35.38c4.25-6.74 9.34-2.9 12.49 2.07q10.62 16.74 21.54 33.31 1.02 1.55-.84 1.55h-7.1a1.02.99 73.5 0 1-.85-.48l-3.72-6.06a1.02 1.01 73.8 0 0-.86-.48l-19.67.06a1.02 1.01-16.9 0 1-.84-.44ZM360.51 27.05a4.65 4.65 0 0 1-4.65 4.65 4.65 4.65 0 0 1-4.65-4.65 4.65 4.65 0 0 1 4.65-4.65 4.65 4.65 0 0 1 4.65 4.65Zm-2.98 2.34c5.22-4.1-2.67-7.15-5.14-2.93a1 .99-52.7 0 0 .16 1.21l2.74 2.74a1 1 0 0 0 1.03.24q.63-.21.91-.86.1-.24.3-.4ZM99.306 43.774a18.68 18.68 0 0 1-18.582 18.778l-25.96.136a18.68 18.68 0 0 1-18.777-18.582l-.013-2.38a18.68 18.68 0 0 1 18.582-18.778l25.96-.136a18.68 18.68 0 0 1 18.777 18.582l.013 2.38ZM91.57 42.09A12.17 12.17 0 0 0 79.4 29.92H55.88a12.17 12.17 0 0 0-12.17 12.17v1.34A12.17 12.17 0 0 0 55.88 55.6H79.4a12.17 12.17 0 0 0 12.17-12.17v-1.34ZM136.14 49.57q-2.77-.38-.61 1.41l12.2 10.12q2.21 1.82-.65 1.77l-8.51-.18a1.01.93 63.6 0 1-.63-.24L116.87 44.5q-2.08-1.77.65-1.76 9.46.02 18.22.05c9.98.05 10.34-12.88.17-13.01q-11.75-.14-23.51.07a1 1 0 0 0-.98 1l-.13 30.91a1.01 1 .3 0 1-1.01.99h-5.67a1 .99.3 0 1-1-1l.17-37.9a1.01 1.01 0 0 1 .99-1q14.95-.21 29.86-.06.07 0 2.73-.1c11.83-.42 17.52 13.13 10.93 22.11q-4.28 5.84-12.15 4.77ZM230.86 55.73q10.91.07 21.92-.01 1.78-.01.86 1.52l-3.04 5.05a.98.98 0 0 1-.86.48q-10.03-.06-20.05-.01-7.11.04-10.74-1.29c-21.48-7.85-15.25-38.9 8.35-38.75q12.5.07 24.88.02 1.81 0 .85 1.54l-3.15 5.01a1.02 1-73.5 0 1-.85.47q-9-.02-17.77-.01-6.87.02-9.38.96c-10.64 4.01-10.99 19.33-.46 23.85q2.61 1.12 9.44 1.17ZM266.75 55.75h33.43q1.87 0 .84 1.55l-3.34 5.01a1.01 1.01 0 0 1-.84.45l-35.78-.02q-2.41 0-2.86-2.37c-.85-4.44-.15-9.65-.27-13.16q-.38-11.74-.08-23.49a1 1 0 0 1 1-.97h5.9a1 1 0 0 1 1 1v31a1 1 0 0 0 1 1ZM309.94 39.2l34.39.01q1.84 0 .84 1.55l-3.28 5.09a.99.98-73.8 0 1-.83.46l-31.11.18a1 1 0 0 0-.9 1.42q3.52 7.62 12.13 7.77 13.01.22 25.97-.05 1.87-.04.86 1.53l-3.28 5.13a1.02 1-73.1 0 1-.84.46q-9.68.01-19.34 0-7.95-.01-11.46-1.26c-17.42-6.21-17-31.29.06-37.53q3.3-1.21 9.83-1.22 11.73-.02 23.46.05 1.79.02.84 1.53l-3.13 4.99a1 .99 15.6 0 1-.85.47q-9.65-.08-19.26-.01-6.09.04-8.94 1.51-4.07 2.1-6.07 6.51a1 1 0 0 0 .91 1.41Z"/><path fill="#fff" d="M357.23 29.79q-.28.65-.91.86a1 1 0 0 1-1.03-.24l-2.74-2.74a1 .99-52.7 0 1-.16-1.21c2.47-4.22 10.36-1.17 5.14 2.93q-.2.16-.3.4Zm-2.9-3.25q.01 2.27 2.01 2.06a1 .99-82.3 0 0 .83-.64q1.12-2.9-1.99-2.41a1 1 0 0 0-.85.99Z"/><path fill="#fe0000" d="M354.33 26.54a1 1 0 0 1 .85-.99q3.11-.49 1.99 2.41a1 .99-82.3 0 1-.83.64q-2 .21-2.01-2.06Z"/><rect width="47.86" height="25.68" x="43.71" y="29.92" fill="#fff" rx="12.17"/><rect width="314.68" height="2.3" x="35" y="82.7" rx=".89"/><path d="M335.13 115.67q2.27-1.22 4.81-1.24c11.4-.07 10.11 18.28-1.7 19.09-15.89 1.09-15.05-34.92 7.01-29.44a1 .98-83.4 0 1 .75.97v2.97a1 1 0 0 1-1.28.96q-8.66-2.48-10.74 5.79-.45 1.76 1.15.9Zm2.762 12.87a4.88 3.74 90.1 0 0 3.748-4.873 4.88 3.74 90.1 0 0-3.731-4.887 4.88 3.74 90.1 0 0-3.749 4.873 4.88 3.74 90.1 0 0 3.731 4.887Z"/><path d="M310.49 131.84a1 1 0 0 1-1.02 1.02l-4.74-.09a1 1 0 0 1-.98-1v-26.74a1 1 0 0 1 .96-1q8.89-.39 13.54.46c10.01 1.84 8.02 17.47-3.64 18.19q-1.66.1-3.32.16a1 1 0 0 0-.96 1.02l.16 7.98Zm-.17-14.79a1.01 1 87.6 0 0 1.13 1.04l4.4-.58a.99.99 0 0 0 .77-.56q3.19-6.58-3.06-8.2-2.86-.74-2.99 2.46l-.25 5.84ZM78.63 105.35c4.02.26 7.97.61 9.12 5.32 1.48 6.02-1.31 10.17-7.33 10.65q-2.17.17-4.3.27a.99.99 0 0 0-.95 1.01l.11 8.14a1 .99-.6 0 1-1 1.01h-4.03a1 1 0 0 1-1-1v-24.41a1 1 0 0 1 .94-1q4.31-.26 8.44.01Zm1.18 4.59q-1.47-.38-4.02-.21a1 1 0 0 0-.93 1.03l.19 5.44a1.01.99-86.9 0 0 .85.96q4.63.66 6.56-3.28a.99.96-39.2 0 0 .08-.66q-.6-2.74-2.73-3.28ZM98.21 121.98l.06 8.76a1.01 1-90 0 1-1 1.01h-4.13a1 1 0 0 1-1-.99l-.16-24.41a1 1 0 0 1 .94-1q6.72-.45 13.29.22c5.21.53 8.64 5.88 5.13 10.36q-.81 1.03-1.95 1.76-1.48.95.1 1.74l1.15.57a1.05 1-83.2 0 1 .54.72l1.81 9.85a1 1 0 0 1-.98 1.18l-4.26.01a1 1 0 0 1-1-.98q-.1-4.57-1.39-8.95a1 .99-7.2 0 0-.93-.72l-5.19-.14a1.01 1-89.2 0 0-1.03 1.01Zm4.41-12.37q-1.93-.24-3.88-.08a1.01 1-2.2 0 0-.93 1l.02 5a1.01 1-.6 0 0 1.03 1l5.28-.14a1.04 1.01 22.2 0 0 .67-.27c3.26-3.1 1.93-6.02-2.19-6.51Z"/><rect width="6" height="26.5" x="117.75" y="105.25" rx=".65"/><path d="M143.77 121.11q.93 3.27 1.92.02l4.59-15.03a1 .99 8.4 0 1 .97-.71l7.41.1a1.01 1 .6 0 1 .99 1l.12 24.33a1.01 1 2.1 0 1-1.08 1l-3.85-.28a.99.99 0 0 1-.93-1.01l.33-18.23q.06-2.95-1.22-.28-.21.45-.36.96-2.55 9.1-5.53 18.08a1.01 1-80.7 0 1-.95.69h-3.3a1 .99 81.2 0 1-.95-.7q-3.92-12.31-4.7-15.53-.1-.43-.21-.84-2.1-7.41-1.97.29l.27 15.76a1 .99 89.4 0 1-.99 1.02h-3.35a1 .99 89.7 0 1-1-1v-24.34a1 1 0 0 1 .97-1l7.52-.22a1 1 0 0 1 .99.73l4.31 15.19ZM170.9 126.24l-1.78 5.27a.35.35 0 0 1-.33.24l-4.8-.01a.35.35 0 0 1-.33-.47l9.26-25.8a.35.35 0 0 1 .33-.24l6.49.13a.35.35 0 0 1 .32.23l8.92 25.54a.35.35 0 0 1-.31.47l-5.08.21a.35.35 0 0 1-.35-.23l-1.88-5.35a.35.35 0 0 0-.33-.23h-9.8a.35.35 0 0 0-.33.24Zm1.85-5.42a.45.45 0 0 0 .41.6l5.97.16a.45.45 0 0 0 .44-.58l-2.74-9.27a.45.45 0 0 0-.86-.02l-3.22 9.11ZM200.02 124.8l6.3-19.34a.35.35 0 0 1 .34-.24l5.07.11a.35.35 0 0 1 .32.47l-9.47 25.68a.35.35 0 0 1-.32.23l-5.62.09a.35.35 0 0 1-.34-.23l-9.69-25.85a.35.35 0 0 1 .33-.47h5.71a.35.35 0 0 1 .33.24l6.38 19.32a.35.35 0 0 0 .66-.01ZM222.67 127.08l11.47-.16a.41.41 0 0 1 .42.39l.17 4.01a.41.41 0 0 1-.41.43h-17.66a.41.41 0 0 1-.41-.41v-25.56a.41.41 0 0 1 .41-.41h17.18a.41.41 0 0 1 .41.41v3.56a.41.41 0 0 1-.41.41h-11.18a.41.41 0 0 0-.41.41v5.22a.41.41 0 0 0 .41.41l10.51-.13a.41.41 0 0 1 .42.43l-.13 3.82a.41.41 0 0 1-.42.4l-10.37-.21a.41.41 0 0 0-.42.41v6.16a.41.41 0 0 0 .42.41ZM245.25 122v8.75a1 1 0 0 1-1 1h-3.91a1 .99 0 0 1-1-.99l-.11-24.47a1 .99 89.7 0 1 .98-1q5.81-.11 11.53.02c3.57.08 6.47 1.02 7.75 4.62q1.69 4.71-2.84 7.6a1 1 0 0 0-.01 1.68q.66.44 1.2 1.03.7.77.9 2.22.56 4.07 1.54 8.05a1 1 0 0 1-.97 1.24h-4.12a1 1 0 0 1-.99-.86l-1.27-9.02a1 1 0 0 0-.99-.86l-5.69-.01a1 1 0 0 0-1 1Zm6.12-12.36-5.35-.13a1 1 0 0 0-1.02 1v4.96a1 1 0 0 0 1 1q1.51 0 3.01.05c4.23.11 6.68-3.05 3.03-6.6a.96.94 67.1 0 0-.67-.28ZM273.46 105.18l6.22.26a.5.5 0 0 1 .45.33l8.72 25.17a.5.5 0 0 1-.45.66l-4.71.2a.5.5 0 0 1-.5-.34l-1.71-5.12a.5.5 0 0 0-.47-.34h-9.56a.5.5 0 0 0-.47.33l-1.78 5.09a.5.5 0 0 1-.47.33h-4.54a.5.5 0 0 1-.47-.67l9.25-25.58a.5.5 0 0 1 .49-.32Zm-.75 15.78a.35.35 0 0 0 .32.47l6.29.14a.35.35 0 0 0 .34-.45l-2.93-9.51a.35.35 0 0 0-.66-.02l-3.36 9.37Z"/><path fill="#fff" d="m310.32 117.05.25-5.84q.13-3.2 2.99-2.46 6.25 1.62 3.06 8.2a.99.99 0 0 1-.77.56l-4.4.58a1.01 1 87.6 0 1-1.13-1.04ZM102.62 109.61c4.12.49 5.45 3.41 2.19 6.51a1.04 1.01 22.2 0 1-.67.27l-5.28.14a1.01 1-.6 0 1-1.03-1l-.02-5a1.01 1-2.2 0 1 .93-1q1.95-.16 3.88.08ZM252.04 109.92c3.65 3.55 1.2 6.71-3.03 6.6q-1.5-.05-3.01-.05a1 1 0 0 1-1-1v-4.96a1 1 0 0 1 1.02-1l5.35.13a.96.94 67.1 0 1 .67.28ZM79.81 109.94q2.13.54 2.73 3.28a.99.96-39.2 0 1-.08.66q-1.93 3.94-6.56 3.28a1.01.99-86.9 0 1-.85-.96l-.19-5.44a1 1 0 0 1 .93-1.03q2.55-.17 4.02.21ZM172.75 120.82l3.22-9.11a.45.45 0 0 1 .86.02l2.74 9.27a.45.45 0 0 1-.44.58l-5.97-.16a.45.45 0 0 1-.41-.6ZM272.71 120.96l3.36-9.37a.35.35 0 0 1 .66.02l2.93 9.51a.35.35 0 0 1-.34.45l-6.29-.14a.35.35 0 0 1-.32-.47Z"/><ellipse fill="#fff" rx="4.88" ry="3.74" transform="rotate(90.1 107.228 230.485)"/></svg>